<?xml version="1.0" encoding="iso-8859-1"?>
<!-- Generator: Adobe Illustrator 19.0.0, SVG Export Plug-In . SVG Version: 6.00 Build 0)  -->
<svg version="1.1" id="Capa_1" xmlns="http://www.w3.org/2000/svg" xmlns:xlink="http://www.w3.org/1999/xlink" x="0px" y="0px"
	 viewBox="0 0 512.003 512.003" style="enable-background:new 0 0 512.003 512.003;" xml:space="preserve">
<path style="fill:#FFB270;" d="M38.613,473.389L38.613,473.389c-38.42-38.42-38.42-100.709,0-139.128L334.261,38.612
	c38.419-38.419,100.709-38.419,139.128,0l0,0c38.419,38.419,38.419,100.709,0,139.128L177.741,473.389
	C139.322,511.809,77.033,511.809,38.613,473.389z"/>
<g>
	<path style="fill:#B2745B;" d="M428.203,151.085c0,0-30.635,21.159-68.425,21.159s-68.425-21.159-68.425-21.159
		s30.635-21.159,68.425-21.159S428.203,151.085,428.203,151.085z"/>
	<path style="fill:#B2745B;" d="M82.661,359.777c0,0,30.635-21.159,68.425-21.159s68.425,21.159,68.425,21.159
		s-30.635,21.159-68.425,21.159S82.661,359.777,82.661,359.777z"/>
	<path style="fill:#B2745B;" d="M323.857,255.431c0,0-30.635,21.159-68.425,21.159s-68.425-21.159-68.425-21.159
		s30.635-21.159,68.425-21.159S323.857,255.431,323.857,255.431z"/>
</g>
<path d="M480.353,31.648c-42.198-42.197-110.858-42.196-153.055,0L92.523,266.423c-0.002,0.002-0.003,0.003-0.005,0.005
	c-0.003,0.003-0.006,0.007-0.009,0.01l-60.86,60.86c-42.197,42.197-42.197,110.858,0,153.057
	c21.099,21.099,48.813,31.648,76.528,31.648s55.429-10.549,76.528-31.648L315.13,349.93c0.003-0.003,0.007-0.006,0.01-0.009
	c0.002-0.002,0.003-0.003,0.005-0.005l165.211-165.211C522.55,142.507,522.55,73.846,480.353,31.648z M466.426,170.777
	l-43.483,43.483c-5.75,5.744-15.102,5.744-20.85-0.005c-3.846-3.846-10.082-3.846-13.928,0s-3.846,10.082,0,13.928
	c3.729,3.73,8.11,6.419,12.777,8.077l-99.733,99.733c-2.789,2.789-6.492,4.325-10.427,4.325s-7.638-1.536-10.427-4.325
	c-3.846-3.846-10.082-3.846-13.928,0c-3.847,3.846-3.846,10.082,0,13.928c3.729,3.729,8.11,6.419,12.777,8.077L170.775,466.427
	c-34.518,34.519-90.683,34.518-125.2,0l0,0c-34.518-34.518-34.518-90.683,0-125.2l38.864-38.864
	c1.658,4.668,4.348,9.048,8.077,12.777c1.923,1.923,4.443,2.885,6.964,2.885s5.041-0.961,6.964-2.885
	c3.846-3.846,3.846-10.082,0-13.928c-2.789-2.789-4.325-6.492-4.325-10.427s1.536-7.638,4.325-10.427L224.9,161.902
	c2.015,6.708,5.582,12.946,10.287,17.653c1.923,1.923,4.443,2.885,6.964,2.885s5.041-0.962,6.964-2.885
	c3.846-3.846,3.847-10.082,0-13.927c-6.657-6.657-8.512-19.424-3.545-24.396l95.653-95.653c17.259-17.259,39.929-25.889,62.6-25.889
	c22.671,0,45.342,8.63,62.601,25.889C500.944,80.094,500.944,136.259,466.426,170.777z"/>
<path d="M433.8,142.981c-1.354-0.936-33.627-22.904-74.022-22.904s-72.668,21.969-74.022,22.904
	c-2.662,1.839-4.251,4.868-4.251,8.103c0,3.235,1.59,6.264,4.251,8.103c1.354,0.936,33.627,22.904,74.022,22.904
	s72.668-21.969,74.022-22.904c2.662-1.839,4.251-4.868,4.251-8.103C438.051,147.849,436.462,144.82,433.8,142.981z M359.778,162.396
	c-19.023,0-36.293-5.987-47.892-11.311c11.601-5.326,28.87-11.312,47.892-11.312s36.291,5.986,47.891,11.311
	C396.068,156.41,378.8,162.396,359.778,162.396z"/>
<path d="M225.107,351.674c-1.354-0.936-33.626-22.904-74.022-22.904s-72.668,21.969-74.022,22.904
	c-2.662,1.839-4.251,4.868-4.251,8.103c0,3.235,1.589,6.264,4.251,8.103c1.354,0.936,33.627,22.904,74.022,22.904
	s72.668-21.969,74.022-22.904c2.662-1.839,4.251-4.868,4.251-8.103C229.358,356.542,227.769,353.513,225.107,351.674z
	 M151.086,371.088c-19.021,0-36.291-5.986-47.891-11.311c11.6-5.326,28.869-11.311,47.891-11.311c19.046,0,36.333,6,47.931,11.328
	C187.457,365.115,170.218,371.088,151.086,371.088z"/>
<path d="M329.453,247.328c-1.354-0.936-33.626-22.904-74.022-22.904s-72.668,21.968-74.022,22.904
	c-2.662,1.839-4.251,4.868-4.251,8.103c0,3.235,1.589,6.264,4.251,8.103c1.354,0.936,33.626,22.904,74.022,22.904
	s72.668-21.969,74.022-22.904c2.662-1.839,4.251-4.868,4.251-8.103C333.705,252.196,332.115,249.166,329.453,247.328z
	 M255.431,266.742c-19.023,0-36.294-5.987-47.891-11.311c11.6-5.326,28.87-11.311,47.891-11.311s36.291,5.985,47.891,11.311
	C291.722,260.757,274.453,266.742,255.431,266.742z"/>
<path d="M256.014,200.305c1.925,1.937,4.455,2.907,6.986,2.907c2.509,0,5.02-0.953,6.941-2.862
	c3.859-3.833,3.879-10.069,0.045-13.927l-0.073-0.073c-3.834-3.859-10.069-3.878-13.927-0.045
	c-3.859,3.833-3.879,10.069-0.045,13.927L256.014,200.305z"/>
<g>
</g>
<g>
</g>
<g>
</g>
<g>
</g>
<g>
</g>
<g>
</g>
<g>
</g>
<g>
</g>
<g>
</g>
<g>
</g>
<g>
</g>
<g>
</g>
<g>
</g>
<g>
</g>
<g>
</g>
</svg>
